# xmcd
#
# Track frame offsets:
#	150
#	15811
#	31133
#	43638
#	61059
#	74915
#	89624
#	105914
#	119970
#	149990
#
# Disc length: 2137 seconds
#
# Revision: 1
# Processed by: cddbd v1.5.2PL0 Copyright (c) Steve Scherf et al.
# Submitted via: audiograbber 1.83.01
#
DISCID=8f08570a
DTITLE=Sara Spade - all you want
DYEAR=2004
DGENRE=British Songwriting
TTITLE0=Breathing
TTITLE1=Winter
TTITLE2=Down
TTITLE3=All you want
TTITLE4=Bravado
TTITLE5=Potent more me
TTITLE6=Be free
TTITLE7=Turn it around
TTITLE8=Only never
TTITLE9=On my way to anywhere
EXTD=
EXTT0=
EXTT1=
EXTT2=
EXTT3=
EXTT4=
EXTT5=
EXTT6=
EXTT7=
EXTT8=
EXTT9=
PLAYORDER=
